<?xml version="1.0" encoding="utf-8"?>
<!-- Generator: Adobe Illustrator 26.3.1, SVG Export Plug-In . SVG Version: 6.00 Build 0)  -->
<svg version="1.1" id="Layer_1" xmlns="http://www.w3.org/2000/svg" xmlns:xlink="http://www.w3.org/1999/xlink" x="0px" y="0px"
	 viewBox="0 0 16 16" style="enable-background:new 0 0 16 16;" xml:space="preserve">
<style type="text/css">
	.st0{fill:#D11E1E;}
</style>
<path class="st0" d="M11.4,2.8V1.7c0-0.8-0.6-1.4-1.4-1.4H6c-0.8,0-1.4,0.6-1.4,1.4v1.2H0.9v1.3h0.4c0,0,0.2,0,0.3,0.1
	c0.1,0.1,0.2,0.4,0.2,0.4l0.8,9.7c0.1,1.2,0.1,1.4,1.5,1.4h8c1.4,0,1.4-0.2,1.5-1.4l0.8-9.7c0,0,0-0.3,0.2-0.4
	c0.1-0.1,0.3-0.1,0.3-0.1h0.4V2.8L11.4,2.8L11.4,2.8z M5.4,1.7c0-0.4,0.3-0.6,0.7-0.6h3.7c0.4,0,0.7,0.2,0.7,0.6v1.2H5.4V1.7z
	 M5.1,13.2L4.7,5.4h0.8l0.4,7.7H5.1z M8.4,13.2H7.6V5.4h0.9V13.2z M10.9,13.2h-0.8l0.4-7.7h0.8L10.9,13.2z"/>
</svg>
